<svg width="238" height="38" viewBox="0 0 238 38" fill="none" xmlns="http://www.w3.org/2000/svg">
<path d="M11.1 8.74C11.1 8.54 11.11 8.26 11.13 7.9C11.15 7.54 11.22 7.18 11.34 6.82C11.46 6.46 11.64 6.15 11.88 5.89C12.14 5.63 12.51 5.5 12.99 5.5C13.41 5.5 13.78 5.61 14.1 5.83C14.34 5.99 14.52 6.28 14.64 6.7C14.78 7.1 14.87 7.55 14.91 8.05C14.97 8.55 15 9.05 15 9.55C15 10.05 14.99 10.46 14.97 10.78V21.79C14.97 21.85 14.97 22.07 14.97 22.45C14.97 22.81 14.95 23.23 14.91 23.71C14.87 24.17 14.8 24.65 14.7 25.15C14.62 25.63 14.5 26.02 14.34 26.32C14.28 26.46 14.18 26.61 14.04 26.77C13.92 26.91 13.83 27.01 13.77 27.07C13.61 27.23 13.43 27.35 13.23 27.43C13.05 27.51 12.86 27.58 12.66 27.64C12.46 27.68 12.28 27.71 12.12 27.73C11.96 27.75 11.85 27.76 11.79 27.76H5.49C5.01 27.76 4.55 27.72 4.11 27.64C3.69 27.56 3.3 27.38 2.94 27.1C2.68 26.9 2.48 26.65 2.34 26.35C2.22 26.03 2.13 25.72 2.07 25.42C2.03 25.12 2.01 24.85 2.01 24.61C2.01 24.35 2.01 24.19 2.01 24.13V8.44C2.01 8.16 2.04 7.85 2.1 7.51C2.18 7.17 2.29 6.86 2.43 6.58C2.59 6.28 2.79 6.04 3.03 5.86C3.27 5.66 3.57 5.56 3.93 5.56C4.93 5.56 5.58 5.99 5.88 6.85C5.98 7.13 6.04 7.41 6.06 7.69C6.08 7.97 6.1 8.25 6.12 8.53V8.59C6.12 8.73 6.12 9.06 6.12 9.58C6.12 10.1 6.12 10.67 6.12 11.29C6.12 11.89 6.12 12.48 6.12 13.06C6.14 13.62 6.15 14.02 6.15 14.26C6.25 14.26 6.51 14.26 6.93 14.26C7.35 14.26 7.82 14.26 8.34 14.26C8.88 14.26 9.4 14.25 9.9 14.23C10.4 14.21 10.78 14.17 11.04 14.11L11.1 12.73V8.74ZM19.17 18.31C18.89 18.27 18.61 18.25 18.33 18.25C18.07 18.23 17.8 18.2 17.52 18.16C17.18 18.14 16.87 18.06 16.59 17.92C16.31 17.78 16.08 17.6 15.9 17.38C15.72 17.16 15.6 16.89 15.54 16.57C15.5 16.25 15.53 15.9 15.63 15.52C15.67 15.36 15.75 15.19 15.87 15.01C16.01 14.83 16.14 14.69 16.26 14.59C16.54 14.39 16.82 14.26 17.1 14.2C17.42 14.16 17.75 14.15 18.09 14.17C18.45 14.19 18.8 14.18 19.14 14.14H19.23V14.02C19.23 13.78 19.23 13.58 19.23 13.42C19.25 13.26 19.26 13.11 19.26 12.97C19.26 12.83 19.25 12.68 19.23 12.52C19.23 12.36 19.23 12.15 19.23 11.89C19.23 11.37 19.22 10.86 19.2 10.36C19.2 9.84 19.21 9.33 19.23 8.83V8.41C19.23 8.15 19.23 7.87 19.23 7.57C19.25 7.25 19.28 6.94 19.32 6.64C19.36 6.32 19.43 6.03 19.53 5.77C19.63 5.49 19.77 5.26 19.95 5.08C20.25 4.82 20.57 4.69 20.91 4.69H20.97C21.45 4.71 21.83 4.86 22.11 5.14C22.41 5.4 22.63 5.72 22.77 6.1C22.93 6.48 23.03 6.88 23.07 7.3C23.11 7.7 23.13 8.06 23.13 8.38V26.38C23.13 26.4 23.13 26.5 23.13 26.68C23.13 26.84 23.11 27.04 23.07 27.28C23.03 27.52 22.97 27.76 22.89 28C22.81 28.24 22.68 28.44 22.5 28.6C22.36 28.74 22.16 28.85 21.9 28.93C21.64 29.01 21.4 29.05 21.18 29.05C20.7 29.05 20.32 28.89 20.04 28.57C19.78 28.29 19.62 28 19.56 27.7C19.5 27.4 19.45 27.08 19.41 26.74C19.41 26.68 19.4 26.62 19.38 26.56C19.38 26.5 19.38 26.43 19.38 26.35C19.34 26.03 19.32 25.69 19.32 25.33C19.32 24.97 19.31 24.61 19.29 24.25C19.27 24.03 19.26 23.82 19.26 23.62C19.26 23.4 19.26 23.18 19.26 22.96V22.27C19.26 22.07 19.26 21.82 19.26 21.52C19.26 21.22 19.25 20.92 19.23 20.62C19.23 20.32 19.23 20.03 19.23 19.75C19.23 19.45 19.23 19.19 19.23 18.97C19.23 18.87 19.23 18.76 19.23 18.64C19.23 18.52 19.21 18.41 19.17 18.31ZM11.1 24.1L11.07 17.89L5.88 17.92C5.86 18.34 5.85 18.86 5.85 19.48C5.87 20.1 5.88 20.62 5.88 21.04C5.88 21.2 5.88 21.42 5.88 21.7C5.88 21.98 5.88 22.28 5.88 22.6C5.88 22.92 5.88 23.22 5.88 23.5C5.88 23.78 5.88 23.99 5.88 24.13L11.1 24.1ZM31.0523 12.58C31.0323 12.8 31.0423 12.88 31.0823 12.82C31.1223 12.76 31.1723 12.74 31.2323 12.76C31.3523 12.82 31.5623 12.87 31.8623 12.91C32.1823 12.93 32.5123 12.94 32.8523 12.94H33.0023C33.1023 12.94 33.3423 12.94 33.7223 12.94C34.1023 12.92 34.5523 12.91 35.0723 12.91C35.5923 12.91 36.1423 12.91 36.7223 12.91C37.3223 12.91 37.8823 12.91 38.4023 12.91C38.9223 12.91 39.3723 12.92 39.7523 12.94C40.1323 12.94 40.3723 12.94 40.4723 12.94H41.8823C42.0423 12.94 42.1723 12.93 42.2723 12.91H42.7823C43.0823 12.91 43.3823 12.92 43.6823 12.94C44.0023 12.94 44.3123 12.98 44.6123 13.06C44.6523 13.06 44.7023 13.07 44.7623 13.09C44.8223 13.11 44.8723 13.13 44.9123 13.15C45.1523 13.29 45.3223 13.47 45.4223 13.69C45.5423 13.91 45.5923 14.14 45.5723 14.38C45.5523 14.62 45.4623 14.84 45.3023 15.04C45.1623 15.24 44.9623 15.4 44.7023 15.52C44.3023 15.7 43.8623 15.82 43.3823 15.88C42.9223 15.92 42.4923 15.94 42.0923 15.94H40.8623C40.6823 15.94 40.3623 15.94 39.9023 15.94C39.4623 15.94 38.9423 15.94 38.3423 15.94C37.7623 15.94 37.1423 15.94 36.4823 15.94C35.8223 15.94 35.1923 15.94 34.5923 15.94C34.0123 15.94 33.4923 15.94 33.0323 15.94C32.5923 15.94 32.2823 15.94 32.1023 15.94H31.5923C31.2923 15.94 30.9623 15.94 30.6023 15.94C30.2423 15.92 29.8823 15.88 29.5223 15.82C29.1823 15.76 28.8623 15.68 28.5623 15.58C28.2623 15.46 28.0123 15.3 27.8123 15.1C27.6123 14.94 27.4623 14.72 27.3623 14.44C27.2823 14.14 27.2223 13.85 27.1823 13.57C27.1423 13.29 27.1223 13.05 27.1223 12.85C27.1423 12.63 27.1523 12.51 27.1523 12.49V7C27.1523 6.98 27.1523 6.92 27.1523 6.82C27.1523 6.7 27.1523 6.57 27.1523 6.43C27.1723 6.27 27.2023 6.12 27.2423 5.98C27.2823 5.84 27.3323 5.73 27.3923 5.65C27.5523 5.43 27.7123 5.28 27.8723 5.2C28.0523 5.1 28.2823 5.03 28.5623 4.99C28.7623 4.95 28.9723 4.93 29.1923 4.93H29.5823H42.9023C43.0823 4.93 43.2523 4.94 43.4123 4.96C43.5923 4.96 43.7723 4.98 43.9523 5.02C44.1323 5.06 44.3023 5.1 44.4623 5.14C44.6223 5.18 44.7723 5.27 44.9123 5.41C45.0323 5.51 45.1223 5.62 45.1823 5.74C45.2423 5.86 45.2923 5.98 45.3323 6.1C45.3723 6.22 45.3923 6.34 45.3923 6.46C45.4123 6.56 45.4023 6.67 45.3623 6.79C45.3223 7.11 45.1623 7.38 44.8823 7.6C44.6223 7.8 44.2823 7.9 43.8623 7.9H31.0523V9.07C31.2523 9.07 31.5823 9.07 32.0423 9.07C32.5023 9.07 33.0223 9.07 33.6023 9.07C34.1823 9.07 34.7723 9.07 35.3723 9.07C35.9923 9.07 36.5623 9.07 37.0823 9.07C37.6023 9.07 38.0223 9.07 38.3423 9.07C38.6823 9.07 38.8523 9.07 38.8523 9.07H41.6123C41.6923 9.07 41.7823 9.08 41.8823 9.1C41.9823 9.1 42.0823 9.09 42.1823 9.07H42.9623C43.1623 9.07 43.3723 9.09 43.5923 9.13C43.8123 9.15 44.0123 9.21 44.1923 9.31C44.4723 9.43 44.6523 9.62 44.7323 9.88C44.8323 10.14 44.8623 10.38 44.8223 10.6C44.8023 10.72 44.7823 10.84 44.7623 10.96C44.7623 11.08 44.7123 11.19 44.6123 11.29C44.3923 11.53 44.1623 11.68 43.9223 11.74C43.7023 11.8 43.4623 11.83 43.2023 11.83H31.0223L31.0523 12.58ZM45.6023 25.6C45.6223 25.6 45.6923 25.62 45.8123 25.66C45.9323 25.7 46.0623 25.77 46.2023 25.87C46.3623 25.95 46.5023 26.07 46.6223 26.23C46.7623 26.37 46.8523 26.54 46.8923 26.74C47.0123 27.5 46.8923 28.09 46.5323 28.51C46.3123 28.79 46.0723 28.96 45.8123 29.02C45.5523 29.08 45.4123 29.11 45.3923 29.11H29.0123C28.2523 29.11 27.6523 28.98 27.2123 28.72C26.7723 28.48 26.5523 28.13 26.5523 27.67V25C26.5123 24.56 26.5123 24.11 26.5523 23.65C26.5923 23.23 26.7523 22.89 27.0323 22.63C27.3123 22.37 27.6623 22.24 28.0823 22.24C28.1823 22.24 28.3123 22.25 28.4723 22.27C28.6523 22.27 28.7923 22.29 28.8923 22.33C29.1523 22.41 29.3523 22.53 29.4923 22.69C29.6323 22.85 29.7423 23.04 29.8223 23.26C29.9023 23.46 29.9523 23.68 29.9723 23.92C29.9923 24.14 30.0123 24.36 30.0323 24.58C30.0323 24.74 30.0423 24.91 30.0623 25.09C30.0823 25.25 30.1123 25.4 30.1523 25.54C30.1923 25.56 30.3723 25.59 30.6923 25.63C31.0323 25.65 31.5523 25.66 32.2523 25.66C32.8523 25.66 33.3823 25.65 33.8423 25.63C34.3223 25.61 34.5723 25.6 34.5923 25.6H45.6023ZM44.6723 17.59C45.0123 17.59 45.3723 17.59 45.7523 17.59C46.1523 17.57 46.5123 17.61 46.8323 17.71C47.1723 17.79 47.4423 17.96 47.6423 18.22C47.8623 18.48 47.9723 18.88 47.9723 19.42C47.9723 19.9 47.7723 20.32 47.3723 20.68C47.0523 20.96 46.6623 21.12 46.2023 21.16C45.7623 21.18 45.3423 21.18 44.9423 21.16C44.8423 21.14 44.7523 21.13 44.6723 21.13C44.5923 21.13 44.5023 21.13 44.4023 21.13H27.8723C27.8523 21.13 27.7623 21.13 27.6023 21.13C27.4423 21.13 27.2523 21.11 27.0323 21.07C26.8323 21.03 26.6223 20.98 26.4023 20.92C26.1823 20.84 26.0023 20.72 25.8623 20.56C25.6223 20.3 25.5023 19.95 25.5023 19.51C25.5023 19.09 25.6323 18.75 25.8923 18.49C26.1523 18.25 26.4223 18.05 26.7023 17.89C26.9823 17.73 27.2723 17.63 27.5723 17.59C27.6323 17.59 27.6923 17.6 27.7523 17.62C27.8123 17.62 27.8723 17.61 27.9323 17.59C28.2123 17.55 28.5123 17.55 28.8323 17.59C29.1523 17.61 29.4823 17.61 29.8223 17.59C30.8623 17.55 31.9123 17.54 32.9723 17.56C34.0523 17.58 35.1723 17.59 36.3323 17.59C37.5923 17.59 38.9323 17.58 40.3523 17.56C41.7723 17.54 43.1623 17.55 44.5223 17.59H44.6723ZM69.0642 26.86C69.3642 26.9 69.6342 26.99 69.8742 27.13C70.1142 27.25 70.2842 27.48 70.3842 27.82C70.6242 28.56 70.3642 29.1 69.6042 29.44C69.3842 29.54 69.1542 29.6 68.9142 29.62C68.6742 29.64 68.4442 29.65 68.2242 29.65H54.4242C54.0242 29.65 53.6142 29.64 53.1942 29.62C52.7742 29.62 52.3442 29.61 51.9042 29.59C51.5042 29.57 51.1642 29.41 50.8842 29.11C50.6042 28.81 50.4442 28.42 50.4042 27.94L50.3142 25.72C50.2942 25.5 50.2942 25.23 50.3142 24.91C50.3342 24.59 50.4342 24.33 50.6142 24.13C50.8942 23.81 51.2642 23.61 51.7242 23.53C52.1842 23.45 52.6342 23.41 53.0742 23.41C53.3542 23.41 53.8142 23.41 54.4542 23.41C55.0942 23.41 55.9642 23.42 57.0642 23.44C58.1642 23.44 59.5242 23.44 61.1442 23.44C62.7842 23.44 64.7342 23.44 66.9942 23.44V22.3H52.4142C52.2142 22.3 52.0342 22.3 51.8742 22.3C51.7142 22.3 51.5642 22.28 51.4242 22.24C51.2442 22.18 51.0842 22.13 50.9442 22.09C50.8042 22.05 50.6842 21.95 50.5842 21.79C50.3042 21.33 50.2342 20.88 50.3742 20.44C50.4342 20.26 50.5242 20.12 50.6442 20.02C50.7642 19.92 50.8942 19.84 51.0342 19.78C51.1942 19.72 51.3542 19.68 51.5142 19.66C51.6742 19.64 51.8042 19.62 51.9042 19.6C52.2042 19.54 52.5142 19.51 52.8342 19.51C53.2742 19.51 53.7742 19.51 54.3342 19.51C54.9142 19.51 55.7142 19.52 56.7342 19.54C57.7742 19.54 59.1242 19.54 60.7842 19.54C62.4642 19.54 64.6342 19.54 67.2942 19.54C68.3142 19.54 69.0842 19.71 69.6042 20.05C70.1442 20.37 70.4142 20.9 70.4142 21.64V23.86C70.4142 24.14 70.3442 24.43 70.2042 24.73C70.0842 25.01 69.8642 25.25 69.5442 25.45C69.3042 25.61 69.0542 25.7 68.7942 25.72C68.5342 25.72 68.2742 25.72 68.0142 25.72H53.9742V26.86H69.0642ZM50.4342 8.86C50.4342 8.04 50.6642 7.35 51.1242 6.79C51.6042 6.21 52.2742 5.75 53.1342 5.41C54.0142 5.05 55.0842 4.79 56.3442 4.63C57.6042 4.47 59.0342 4.39 60.6342 4.39C62.1542 4.39 63.5442 4.46 64.8042 4.6C66.0642 4.72 67.1442 4.95 68.0442 5.29C68.9442 5.61 69.6342 6.06 70.1142 6.64C70.6142 7.22 70.8642 7.96 70.8642 8.86C70.8642 9.76 70.6542 10.5 70.2342 11.08C69.8142 11.66 69.1742 12.12 68.3142 12.46C67.4542 12.78 66.3842 13.01 65.1042 13.15C63.8242 13.27 62.3342 13.33 60.6342 13.33C59.2142 13.33 57.8842 13.27 56.6442 13.15C55.4242 13.01 54.3442 12.78 53.4042 12.46C52.4842 12.12 51.7542 11.66 51.2142 11.08C50.6942 10.5 50.4342 9.76 50.4342 8.86ZM51.6042 14.65C51.7642 14.63 51.9442 14.62 52.1442 14.62C52.3442 14.6 52.5542 14.59 52.7742 14.59H53.5242H60.1242C61.1842 14.57 62.2242 14.56 63.2442 14.56C64.1042 14.56 65.0042 14.56 65.9442 14.56C66.8842 14.56 67.6942 14.57 68.3742 14.59H68.5242C68.9242 14.61 69.3242 14.62 69.7242 14.62C70.1242 14.62 70.5242 14.7 70.9242 14.86C71.2042 14.96 71.4242 15.13 71.5842 15.37C71.7642 15.61 71.8542 15.88 71.8542 16.18C71.8542 16.68 71.6542 17.1 71.2542 17.44C70.9342 17.72 70.5442 17.88 70.0842 17.92C69.6242 17.96 69.1942 17.96 68.7942 17.92H51.5742C51.5542 17.92 51.4642 17.92 51.3042 17.92C51.1442 17.92 50.9542 17.9 50.7342 17.86C50.5342 17.82 50.3142 17.76 50.0742 17.68C49.8542 17.6 49.6742 17.48 49.5342 17.32C49.2942 17.08 49.1742 16.74 49.1742 16.3C49.1742 15.88 49.3042 15.54 49.5642 15.28C49.8242 15.02 50.0942 14.87 50.3742 14.83C50.6542 14.77 50.9442 14.72 51.2442 14.68C51.3042 14.68 51.3642 14.68 51.4242 14.68C51.4842 14.66 51.5442 14.65 51.6042 14.65ZM66.7542 8.86C66.7542 8.54 66.5642 8.28 66.1842 8.08C65.8242 7.88 65.3542 7.73 64.7742 7.63C64.1942 7.51 63.5342 7.43 62.7942 7.39C62.0742 7.35 61.3542 7.33 60.6342 7.33C59.9142 7.33 59.2042 7.35 58.5042 7.39C57.8042 7.43 57.1742 7.51 56.6142 7.63C56.0542 7.73 55.5942 7.88 55.2342 8.08C54.8942 8.28 54.7242 8.54 54.7242 8.86C54.7242 9.14 54.8942 9.37 55.2342 9.55C55.5742 9.73 56.0242 9.87 56.5842 9.97C57.1442 10.07 57.7642 10.14 58.4442 10.18C59.1442 10.22 59.8542 10.24 60.5742 10.24C61.2942 10.24 62.0142 10.24 62.7342 10.24C63.4742 10.22 64.1442 10.17 64.7442 10.09C65.3442 10.01 65.8242 9.88 66.1842 9.7C66.5642 9.5 66.7542 9.22 66.7542 8.86Z" fill="#8FC158"/>
<path d="M185.18 23.56C185.24 23.58 185.3 23.59 185.36 23.59C185.42 23.57 185.48 23.56 185.54 23.56C185.88 23.6 186.19 23.67 186.47 23.77C186.77 23.85 187.06 24.01 187.34 24.25C187.62 24.53 187.76 24.88 187.76 25.3C187.76 25.52 187.72 25.76 187.64 26.02C187.58 26.26 187.49 26.45 187.37 26.59C187.21 26.75 187.01 26.87 186.77 26.95C186.53 27.03 186.3 27.09 186.08 27.13C185.86 27.15 185.66 27.16 185.48 27.16C185.32 27.16 185.23 27.16 185.21 27.16H168.41C168.31 27.16 168.21 27.17 168.11 27.19C168.01 27.19 167.91 27.19 167.81 27.19C167.39 27.21 166.94 27.21 166.46 27.19C165.98 27.15 165.57 26.99 165.23 26.71C164.81 26.33 164.6 25.9 164.6 25.42C164.6 25.12 164.69 24.81 164.87 24.49C165.05 24.17 165.29 23.95 165.59 23.83C165.99 23.67 166.4 23.59 166.82 23.59C167.26 23.59 167.7 23.58 168.14 23.56H168.29C170.03 23.52 171.82 23.52 173.66 23.56L173.63 19.42C172.87 19.44 172.18 19.45 171.56 19.45C170.96 19.45 170.48 19.43 170.12 19.39C169.7 19.37 169.24 19.34 168.74 19.3C168.24 19.24 167.82 19.08 167.48 18.82C167.26 18.64 167.08 18.39 166.94 18.07C166.82 17.75 166.73 17.43 166.67 17.11C166.61 16.79 166.57 16.51 166.55 16.27C166.55 16.01 166.55 15.87 166.55 15.85V9.4C166.55 9 166.53 8.6 166.49 8.2C166.47 7.8 166.5 7.4 166.58 7C166.64 6.76 166.74 6.57 166.88 6.43C167.04 6.27 167.22 6.15 167.42 6.07C167.64 5.97 167.87 5.9 168.11 5.86C168.37 5.82 168.61 5.79 168.83 5.77C169.01 5.77 169.2 5.78 169.4 5.8C169.6 5.82 169.79 5.87 169.97 5.95C170.15 6.01 170.3 6.11 170.42 6.25C170.56 6.37 170.65 6.53 170.69 6.73C170.71 6.83 170.71 7.02 170.69 7.3C170.69 7.58 170.69 7.89 170.69 8.23C170.69 8.55 170.69 8.86 170.69 9.16C170.71 9.44 170.74 9.62 170.78 9.7C170.82 9.8 170.92 9.87 171.08 9.91C171.26 9.93 171.4 9.95 171.5 9.97C171.96 10.01 172.32 10.02 172.58 10C172.84 9.96 173.2 9.94 173.66 9.94L180.53 9.97C180.75 9.99 180.93 9.99 181.07 9.97C181.23 9.93 181.34 9.8 181.4 9.58C181.4 9.48 181.4 9.31 181.4 9.07C181.42 8.81 181.43 8.55 181.43 8.29C181.43 8.01 181.43 7.76 181.43 7.54C181.45 7.3 181.46 7.14 181.46 7.06C181.48 6.7 181.55 6.42 181.67 6.22C181.81 6 182.07 5.85 182.45 5.77C182.85 5.67 183.28 5.65 183.74 5.71C184.22 5.75 184.57 5.88 184.79 6.1C185.11 6.44 185.29 6.83 185.33 7.27C185.37 7.71 185.39 8.32 185.39 9.1C185.37 9.56 185.36 10.16 185.36 10.9C185.38 11.62 185.39 12.37 185.39 13.15C185.39 13.93 185.38 14.68 185.36 15.4C185.36 16.12 185.34 16.71 185.3 17.17C185.2 18.39 184.57 19.09 183.41 19.27C183.11 19.31 182.77 19.33 182.39 19.33C182.03 19.33 181.7 19.33 181.4 19.33C180.76 19.35 180.13 19.36 179.51 19.36C178.89 19.36 178.28 19.36 177.68 19.36L177.74 23.56C178.24 23.56 178.71 23.56 179.15 23.56C179.61 23.54 180.05 23.53 180.47 23.53C180.89 23.53 181.32 23.53 181.76 23.53C182.2 23.53 182.66 23.54 183.14 23.56C183.5 23.58 183.85 23.58 184.19 23.56C184.53 23.52 184.86 23.52 185.18 23.56ZM170.78 15.55C170.86 15.85 171.07 16.03 171.41 16.09C171.77 16.13 172.12 16.16 172.46 16.18C172.5 16.18 172.69 16.18 173.03 16.18C173.37 16.16 173.78 16.15 174.26 16.15C174.74 16.15 175.25 16.15 175.79 16.15C176.35 16.13 176.87 16.12 177.35 16.12C177.85 16.12 178.27 16.13 178.61 16.15C178.95 16.15 179.15 16.15 179.21 16.15C179.37 16.17 179.53 16.18 179.69 16.18C179.87 16.16 180.04 16.16 180.2 16.18C180.3 16.18 180.41 16.19 180.53 16.21C180.67 16.23 180.8 16.23 180.92 16.21C181.04 16.19 181.14 16.14 181.22 16.06C181.3 15.98 181.34 15.86 181.34 15.7C181.34 15.62 181.34 15.5 181.34 15.34C181.34 15.16 181.34 14.97 181.34 14.77C181.34 14.55 181.33 14.34 181.31 14.14C181.31 13.92 181.29 13.74 181.25 13.6C181.19 13.36 181.09 13.23 180.95 13.21C180.83 13.17 180.67 13.16 180.47 13.18C180.37 13.18 180.21 13.19 179.99 13.21C179.79 13.21 179.64 13.2 179.54 13.18H172.7C172.52 13.18 172.32 13.18 172.1 13.18C171.88 13.16 171.67 13.17 171.47 13.21C171.29 13.23 171.13 13.3 170.99 13.42C170.85 13.52 170.77 13.69 170.75 13.93C170.75 13.99 170.75 14.1 170.75 14.26C170.75 14.42 170.75 14.59 170.75 14.77C170.75 14.95 170.75 15.12 170.75 15.28C170.77 15.42 170.78 15.51 170.78 15.55ZM206.616 25.09C206.616 25.59 206.596 25.99 206.556 26.29C206.536 26.59 206.446 26.97 206.286 27.43C206.186 27.73 206.016 27.98 205.776 28.18C205.536 28.38 205.196 28.48 204.756 28.48C204.636 28.48 204.476 28.46 204.276 28.42C204.076 28.4 203.926 28.35 203.826 28.27C203.626 28.15 203.466 27.96 203.346 27.7C203.246 27.42 203.166 27.13 203.106 26.83C203.046 26.53 203.006 26.24 202.986 25.96C202.986 25.68 202.986 25.46 202.986 25.3V17.29L201.036 17.2C200.856 17.2 200.666 17.18 200.466 17.14C200.286 17.08 200.106 16.99 199.926 16.87C199.766 16.75 199.626 16.59 199.506 16.39C199.386 16.19 199.316 15.94 199.296 15.64C199.256 15.28 199.276 14.9 199.356 14.5C199.456 14.08 199.736 13.76 200.196 13.54C200.376 13.44 200.596 13.38 200.856 13.36C201.136 13.34 201.376 13.34 201.576 13.36H202.986V7.9C202.986 7.64 202.986 7.38 202.986 7.12C202.986 6.84 203.016 6.57 203.076 6.31C203.116 6.21 203.146 6.12 203.166 6.04C203.206 5.96 203.246 5.87 203.286 5.77C203.506 5.41 203.816 5.16 204.216 5.02C204.316 4.98 204.416 4.96 204.516 4.96C204.636 4.94 204.746 4.93 204.846 4.93C205.506 4.93 206.006 5.23 206.346 5.83C206.426 5.95 206.476 6.12 206.496 6.34C206.536 6.56 206.566 6.79 206.586 7.03C206.606 7.25 206.616 7.45 206.616 7.63C206.616 7.79 206.616 7.89 206.616 7.93V21.97V25.09ZM211.386 27.64C211.266 27.9 211.076 28.12 210.816 28.3C210.416 28.56 209.976 28.63 209.496 28.51C209.196 28.45 208.956 28.32 208.776 28.12C208.596 27.94 208.456 27.73 208.356 27.49C208.276 27.25 208.226 26.99 208.206 26.71C208.186 26.43 208.176 26.16 208.176 25.9V8.23C208.176 8.01 208.176 7.76 208.176 7.48C208.176 7.18 208.196 6.9 208.236 6.64C208.276 6.36 208.326 6.1 208.386 5.86C208.466 5.62 208.576 5.43 208.716 5.29C208.936 5.09 209.146 4.97 209.346 4.93C209.546 4.87 209.786 4.84 210.066 4.84C210.406 4.84 210.686 4.94 210.906 5.14C211.126 5.32 211.296 5.57 211.416 5.89C211.596 6.31 211.696 6.74 211.716 7.18C211.736 7.62 211.756 8.07 211.776 8.53V8.68C211.816 10.2 211.826 11.66 211.806 13.06C211.786 14.46 211.776 15.87 211.776 17.29V24.79C211.776 25.31 211.756 25.81 211.716 26.29C211.696 26.77 211.586 27.22 211.386 27.64ZM195.786 21.88C195.766 21.9 195.666 22.03 195.486 22.27C195.326 22.49 195.146 22.74 194.946 23.02C194.766 23.28 194.586 23.52 194.406 23.74C194.246 23.96 194.156 24.08 194.136 24.1C193.976 24.32 193.816 24.54 193.656 24.76C193.516 24.96 193.366 25.16 193.206 25.36C193.166 25.4 193.126 25.45 193.086 25.51C193.066 25.57 193.036 25.62 192.996 25.66C192.716 26 192.426 26.33 192.126 26.65C191.826 26.97 191.476 27.21 191.076 27.37C190.916 27.45 190.736 27.49 190.536 27.49C190.336 27.49 190.166 27.44 190.026 27.34C189.906 27.24 189.766 27.11 189.606 26.95C189.286 26.59 189.126 26.17 189.126 25.69C189.146 25.33 189.226 24.99 189.366 24.67C189.526 24.35 189.686 24.05 189.846 23.77C189.886 23.73 189.996 23.56 190.176 23.26C190.376 22.96 190.606 22.59 190.866 22.15C191.126 21.71 191.396 21.24 191.676 20.74C191.976 20.22 192.256 19.74 192.516 19.3C192.796 18.84 193.036 18.44 193.236 18.1C193.436 17.76 193.576 17.55 193.656 17.47C193.776 17.25 193.866 17.04 193.926 16.84C194.006 16.64 194.056 16.43 194.076 16.21C194.116 15.89 194.136 15.58 194.136 15.28C194.136 14.96 194.136 14.62 194.136 14.26V8.95C194.136 8.75 194.136 8.56 194.136 8.38C194.136 8.2 194.146 8.01 194.166 7.81C194.166 7.59 194.186 7.37 194.226 7.15C194.266 6.93 194.306 6.73 194.346 6.55C194.386 6.43 194.436 6.3 194.496 6.16C194.576 6.02 194.646 5.89 194.706 5.77C194.806 5.61 194.936 5.49 195.096 5.41C195.276 5.33 195.466 5.27 195.666 5.23L195.726 5.2C195.886 5.16 196.016 5.15 196.116 5.17C196.216 5.17 196.346 5.2 196.506 5.26C196.666 5.32 196.806 5.41 196.926 5.53C197.006 5.61 197.076 5.72 197.136 5.86C197.196 6 197.256 6.15 197.316 6.31C197.396 6.51 197.456 6.74 197.496 7C197.556 7.24 197.596 7.5 197.616 7.78C197.696 8.62 197.746 9.57 197.766 10.63C197.786 11.67 197.796 12.61 197.796 13.45C197.816 13.97 197.826 14.49 197.826 15.01C197.826 15.51 197.846 16.01 197.886 16.51C197.906 16.95 198.006 17.36 198.186 17.74C198.386 18.12 198.586 18.5 198.786 18.88C198.986 19.32 199.196 19.77 199.416 20.23C199.636 20.69 199.856 21.13 200.076 21.55C200.096 21.61 200.166 21.75 200.286 21.97C200.406 22.19 200.526 22.43 200.646 22.69C200.786 22.93 200.906 23.16 201.006 23.38C201.126 23.58 201.196 23.71 201.216 23.77L201.276 24.01L201.366 24.19C201.486 24.41 201.576 24.64 201.636 24.88C201.696 25.1 201.736 25.34 201.756 25.6C201.776 25.86 201.716 26.13 201.576 26.41C201.296 27.03 200.896 27.36 200.376 27.4H200.346C200.026 27.4 199.746 27.28 199.506 27.04C199.266 26.8 199.006 26.51 198.726 26.17C198.446 25.85 198.176 25.48 197.916 25.06C197.656 24.64 197.426 24.29 197.226 24.01C196.766 23.25 196.416 22.72 196.176 22.42C195.936 22.1 195.806 21.92 195.786 21.88ZM234.428 23.59C234.488 23.61 234.548 23.62 234.608 23.62C234.668 23.6 234.728 23.59 234.788 23.59C235.128 23.63 235.438 23.7 235.718 23.8C236.018 23.88 236.308 24.05 236.588 24.31C236.868 24.55 237.008 24.89 237.008 25.33C237.008 25.55 236.968 25.79 236.888 26.05C236.828 26.29 236.738 26.48 236.618 26.62C236.458 26.78 236.258 26.9 236.018 26.98C235.798 27.06 235.568 27.12 235.328 27.16C235.108 27.18 234.908 27.19 234.728 27.19C234.568 27.19 234.478 27.19 234.458 27.19H217.988C217.888 27.19 217.738 27.2 217.538 27.22C217.338 27.22 217.188 27.22 217.088 27.22C216.648 27.24 216.188 27.24 215.708 27.22C215.228 27.18 214.818 27.02 214.478 26.74C214.058 26.36 213.848 25.93 213.848 25.45C213.848 25.15 213.938 24.84 214.118 24.52C214.298 24.2 214.538 23.98 214.838 23.86C215.238 23.7 215.648 23.62 216.068 23.62C216.508 23.62 216.948 23.61 217.388 23.59H217.538C217.838 23.59 218.188 23.59 218.588 23.59C219.008 23.57 219.378 23.56 219.698 23.56C219.678 23.48 219.668 23.38 219.668 23.26V23.14V20.35C219.668 20.17 219.698 19.99 219.758 19.81C219.798 19.65 219.868 19.49 219.968 19.33C220.068 19.15 220.208 18.98 220.388 18.82C219.648 18.64 218.948 18.36 218.288 17.98C217.648 17.6 217.088 17.06 216.608 16.36C216.148 15.74 215.838 15.08 215.678 14.38C215.538 13.68 215.468 12.95 215.468 12.19C215.468 10.63 215.878 9.33 216.698 8.29C217.538 7.23 218.678 6.47 220.118 6.01C221.078 5.69 222.048 5.49 223.028 5.41C224.028 5.31 225.028 5.3 226.028 5.38C226.848 5.44 227.668 5.52 228.488 5.62C229.308 5.72 230.098 5.94 230.858 6.28C231.198 6.44 231.528 6.63 231.848 6.85C232.168 7.07 232.468 7.33 232.748 7.63C233.448 8.39 233.928 9.21 234.188 10.09C234.448 10.97 234.538 11.91 234.458 12.91C234.338 14.47 233.878 15.72 233.078 16.66C232.278 17.58 231.278 18.25 230.078 18.67C230.298 18.79 230.478 18.95 230.618 19.15C230.758 19.35 230.838 19.59 230.858 19.87C230.878 20.19 230.888 20.69 230.888 21.37C230.908 22.03 230.918 22.77 230.918 23.59H232.118C232.478 23.61 232.868 23.61 233.288 23.59C233.728 23.55 234.108 23.55 234.428 23.59ZM230.528 13.36C230.588 13.1 230.608 12.85 230.588 12.61C230.548 11.57 230.218 10.8 229.598 10.3C228.998 9.78 228.218 9.46 227.258 9.34C226.698 9.28 226.008 9.22 225.188 9.16C224.368 9.08 223.558 9.1 222.758 9.22C221.978 9.34 221.288 9.59 220.688 9.97C220.088 10.33 219.728 10.91 219.608 11.71C219.548 12.19 219.548 12.65 219.608 13.09C219.688 13.53 219.858 13.92 220.118 14.26C220.378 14.6 220.738 14.89 221.198 15.13C221.658 15.37 222.248 15.52 222.968 15.58C223.668 15.66 224.378 15.73 225.098 15.79C225.838 15.85 226.558 15.81 227.258 15.67C227.598 15.61 227.938 15.53 228.278 15.43C228.638 15.31 228.968 15.16 229.268 14.98C229.568 14.8 229.828 14.58 230.048 14.32C230.268 14.04 230.428 13.72 230.528 13.36ZM226.478 19.21C225.958 19.21 225.408 19.22 224.828 19.24C224.268 19.24 223.698 19.22 223.118 19.18C223.258 19.42 223.338 19.65 223.358 19.87C223.378 20.19 223.388 20.69 223.388 21.37C223.408 22.03 223.418 22.77 223.418 23.59H226.598H227.198C227.178 23.51 227.168 23.4 227.168 23.26V23.14V20.35C227.168 20.23 227.188 20.1 227.228 19.96C227.268 19.86 227.308 19.74 227.348 19.6C227.388 19.46 227.458 19.32 227.558 19.18C227.378 19.2 227.198 19.21 227.018 19.21C226.838 19.21 226.658 19.21 226.478 19.21Z" fill="#8FC158"/>
<path d="M86.03 14.77C86.19 14.75 86.37 14.74 86.57 14.74C86.77 14.72 86.98 14.71 87.2 14.71H87.95H94.55H96.23C96.73 14.71 97.29 14.71 97.91 14.71C98.53 14.69 99.16 14.68 99.8 14.68C99.7 14.42 99.66 14.16 99.68 13.9C99.7 13.64 99.72 13.31 99.74 12.91H87.35C87.33 12.91 87.18 12.84 86.9 12.7C86.62 12.54 86.41 12.35 86.27 12.13C86.13 11.89 86.06 11.62 86.06 11.32C86.06 11.04 86.13 10.79 86.27 10.57C86.41 10.39 86.55 10.28 86.69 10.24C86.85 10.2 87.01 10.16 87.17 10.12C87.21 10.12 87.24 10.12 87.26 10.12C87.3 10.1 87.34 10.09 87.38 10.09C87.72 10.05 88.06 10.02 88.4 10C88.58 10 88.89 10 89.33 10C89.79 9.98 90.31 9.97 90.89 9.97C91.49 9.95 92.11 9.94 92.75 9.94C93.41 9.94 94.04 9.94 94.64 9.94C95.24 9.92 95.77 9.91 96.23 9.91C96.69 9.91 97.03 9.91 97.25 9.91C97.65 9.91 98.06 9.92 98.48 9.94C98.9 9.94 99.32 9.94 99.74 9.94C99.74 9.6 99.74 9.27 99.74 8.95C99.74 8.63 99.73 8.31 99.71 7.99C98.81 7.91 97.85 7.86 96.83 7.84C95.83 7.82 94.83 7.82 93.83 7.84C92.83 7.84 91.85 7.85 90.89 7.87C89.93 7.87 89.03 7.84 88.19 7.78C87.91 7.76 87.63 7.75 87.35 7.75C87.07 7.75 86.81 7.71 86.57 7.63C86.35 7.53 86.16 7.36 86 7.12C85.86 6.88 85.8 6.52 85.82 6.04C85.84 5.66 86.01 5.38 86.33 5.2C86.65 5 86.98 4.85 87.32 4.75C87.74 4.65 88.15 4.61 88.55 4.63C88.95 4.63 89.36 4.62 89.78 4.6H97.91C98.03 4.6 98.15 4.6 98.27 4.6C98.41 4.58 98.54 4.58 98.66 4.6H100.55C100.75 4.6 100.93 4.6 101.09 4.6C101.27 4.6 101.45 4.61 101.63 4.63C101.73 4.63 101.82 4.63 101.9 4.63C102 4.63 102.09 4.65 102.17 4.69L102.44 4.78C102.84 4.94 103.15 5.17 103.37 5.47C103.55 5.71 103.66 5.98 103.7 6.28C103.76 6.58 103.79 6.87 103.79 7.15C103.79 7.55 103.79 8 103.79 8.5C103.81 8.98 103.82 9.48 103.82 10C103.84 10.5 103.85 11 103.85 11.5C103.85 12 103.84 12.44 103.82 12.82C103.78 13.2 103.77 13.54 103.79 13.84C103.81 14.12 103.76 14.42 103.64 14.74C103.92 14.74 104.2 14.76 104.48 14.8C104.78 14.82 105.07 14.88 105.35 14.98C105.63 15.08 105.85 15.25 106.01 15.49C106.19 15.73 106.28 16 106.28 16.3C106.28 16.8 106.08 17.22 105.68 17.56C105.36 17.84 104.97 18 104.51 18.04C104.05 18.08 103.62 18.08 103.22 18.04H86C85.98 18.04 85.89 18.04 85.73 18.04C85.57 18.04 85.38 18.02 85.16 17.98C84.96 17.94 84.74 17.88 84.5 17.8C84.28 17.72 84.1 17.6 83.96 17.44C83.72 17.2 83.6 16.86 83.6 16.42C83.6 16 83.73 15.66 83.99 15.4C84.25 15.14 84.52 14.99 84.8 14.95C85.08 14.89 85.37 14.84 85.67 14.8C85.73 14.8 85.79 14.8 85.85 14.8C85.91 14.78 85.97 14.77 86.03 14.77ZM103.7 26.8C104.02 26.84 104.3 26.92 104.54 27.04C104.78 27.16 104.95 27.38 105.05 27.7C105.29 28.42 105.03 28.93 104.27 29.23C104.03 29.33 103.79 29.39 103.55 29.41C103.31 29.43 103.08 29.44 102.86 29.44H88.91C88.51 29.44 88.09 29.43 87.65 29.41C87.23 29.41 86.8 29.4 86.36 29.38C85.94 29.36 85.59 29.21 85.31 28.93C85.03 28.65 84.87 28.28 84.83 27.82L84.74 25.72C84.72 25.5 84.72 25.24 84.74 24.94C84.76 24.64 84.86 24.39 85.04 24.19C85.32 23.89 85.69 23.7 86.15 23.62C86.63 23.54 87.09 23.5 87.53 23.5C87.81 23.5 88.27 23.5 88.91 23.5C89.57 23.5 90.46 23.51 91.58 23.53C92.7 23.53 94.08 23.53 95.72 23.53C97.38 23.53 99.35 23.53 101.63 23.53V22.45H86.87C86.67 22.45 86.49 22.45 86.33 22.45C86.17 22.45 86.01 22.43 85.85 22.39C85.67 22.35 85.51 22.31 85.37 22.27C85.23 22.23 85.11 22.13 85.01 21.97C84.73 21.55 84.66 21.12 84.8 20.68C84.86 20.52 84.95 20.4 85.07 20.32C85.19 20.22 85.33 20.14 85.49 20.08C85.65 20.02 85.8 19.98 85.94 19.96C86.1 19.94 86.24 19.92 86.36 19.9C86.66 19.84 86.97 19.81 87.29 19.81C87.59 19.81 87.91 19.81 88.25 19.81C88.59 19.81 89 19.81 89.48 19.81C89.98 19.81 90.57 19.82 91.25 19.84C91.93 19.84 92.76 19.84 93.74 19.84C94.74 19.84 95.9 19.84 97.22 19.84C98.56 19.84 100.13 19.84 101.93 19.84C102.95 19.84 103.73 20 104.27 20.32C104.81 20.62 105.08 21.12 105.08 21.82V23.95C105.08 24.23 105.01 24.51 104.87 24.79C104.75 25.05 104.53 25.27 104.21 25.45C103.95 25.61 103.69 25.7 103.43 25.72C103.17 25.72 102.91 25.72 102.65 25.72H88.43V26.8H103.7ZM120.167 17.95C119.927 18.05 119.677 18.12 119.417 18.16C119.177 18.18 118.927 18.19 118.667 18.19H112.187C111.747 18.19 111.297 18.19 110.837 18.19C110.377 18.19 109.917 18.17 109.457 18.13C109.017 18.11 108.657 17.95 108.377 17.65C108.097 17.35 107.937 16.95 107.897 16.45C107.877 16.27 107.857 16.01 107.837 15.67C107.837 15.33 107.827 14.98 107.807 14.62C107.807 14.26 107.807 13.92 107.807 13.6C107.807 13.28 107.807 13.04 107.807 12.88V12.58C107.787 12.36 107.787 12.12 107.807 11.86C107.827 11.6 107.927 11.36 108.107 11.14C108.387 10.8 108.767 10.6 109.247 10.54C109.747 10.46 110.227 10.42 110.687 10.42H117.467V8.65H111.467C111.347 8.65 111.227 8.66 111.107 8.68C110.987 8.68 110.867 8.68 110.747 8.68C110.627 8.7 110.497 8.71 110.357 8.71C110.237 8.71 110.107 8.71 109.967 8.71C109.567 8.71 109.217 8.68 108.917 8.62C108.577 8.54 108.297 8.32 108.077 7.96C107.937 7.72 107.847 7.46 107.807 7.18C107.767 6.88 107.787 6.6 107.867 6.34C107.967 6 108.197 5.75 108.557 5.59C108.917 5.41 109.217 5.3 109.457 5.26C109.757 5.2 110.087 5.17 110.447 5.17H110.987C111.087 5.17 111.187 5.18 111.287 5.2C111.387 5.2 111.487 5.2 111.587 5.2H117.677C118.717 5.2 119.517 5.41 120.077 5.83C120.657 6.25 120.947 6.84 120.947 7.6V10.81C120.947 11.11 120.877 11.48 120.737 11.92C120.617 12.36 120.397 12.68 120.077 12.88C119.817 13.04 119.547 13.14 119.267 13.18C119.007 13.2 118.737 13.2 118.457 13.18H111.527V15.16H118.367C118.567 15.16 118.767 15.16 118.967 15.16C119.167 15.16 119.367 15.17 119.567 15.19C119.907 15.21 120.187 15.33 120.407 15.55C120.647 15.77 120.817 16.03 120.917 16.33C121.157 17.11 120.907 17.65 120.167 17.95ZM125.777 20.89C126.377 20.87 126.847 20.92 127.187 21.04C127.547 21.16 127.827 21.32 128.027 21.52C128.227 21.72 128.357 21.94 128.417 22.18C128.477 22.42 128.507 22.66 128.507 22.9V26.38C128.547 26.82 128.547 27.26 128.507 27.7C128.467 28.12 128.297 28.46 127.997 28.72C127.717 28.98 127.347 29.11 126.887 29.11C126.787 29.11 126.607 29.1 126.347 29.08C126.087 29.08 125.907 29.06 125.807 29.02C125.547 28.94 125.337 28.82 125.177 28.66C125.037 28.5 124.927 28.32 124.847 28.12C124.767 27.92 124.717 27.71 124.697 27.49C124.677 27.25 124.657 27.02 124.637 26.8C124.637 26.72 124.627 26.57 124.607 26.35C124.607 26.11 124.597 25.87 124.577 25.63C124.577 25.37 124.567 25.13 124.547 24.91C124.547 24.69 124.537 24.54 124.517 24.46C124.457 24.44 124.287 24.42 124.007 24.4C123.747 24.38 123.247 24.37 122.507 24.37C121.867 24.37 121.467 24.38 121.307 24.4C121.167 24.4 121.087 24.41 121.067 24.43H110.237L110.207 24.4C110.207 24.4 110.137 24.38 109.997 24.34C109.877 24.3 109.737 24.24 109.577 24.16C109.417 24.08 109.257 23.97 109.097 23.83C108.957 23.69 108.877 23.51 108.857 23.29C108.757 22.53 108.887 21.93 109.247 21.49C109.487 21.21 109.747 21.05 110.027 21.01C110.307 20.95 110.457 20.92 110.477 20.92L125.777 20.89ZM129.047 16.6C129.047 16.6 129.037 16.67 129.017 16.81C128.997 16.95 128.957 17.11 128.897 17.29C128.837 17.47 128.747 17.66 128.627 17.86C128.507 18.04 128.347 18.19 128.147 18.31C127.867 18.47 127.587 18.55 127.307 18.55C126.967 18.55 126.637 18.44 126.317 18.22C126.097 18.06 125.927 17.85 125.807 17.59C125.647 17.29 125.537 16.96 125.477 16.6C125.437 16.24 125.407 15.87 125.387 15.49C125.387 15.11 125.397 14.74 125.417 14.38C125.437 14 125.447 13.64 125.447 13.3C125.467 12.44 125.477 11.59 125.477 10.75C125.477 9.89 125.477 9.04 125.477 8.2V7.81C125.457 7.59 125.447 7.36 125.447 7.12C125.467 6.86 125.507 6.62 125.567 6.4C125.647 6.1 125.827 5.78 126.107 5.44C126.267 5.24 126.487 5.1 126.767 5.02C127.067 4.92 127.387 4.89 127.727 4.93C128.327 5.03 128.727 5.29 128.927 5.71C129.047 5.97 129.097 6.29 129.077 6.67C129.077 7.05 129.067 7.28 129.047 7.36V16.6ZM140.791 7.24C141.091 7.24 141.421 7.29 141.781 7.39C142.061 7.49 142.291 7.74 142.471 8.14C142.631 8.66 142.571 9.17 142.291 9.67C142.211 9.77 142.111 9.87 141.991 9.97C141.891 10.05 141.791 10.13 141.691 10.21C141.571 10.25 141.431 10.29 141.271 10.33C141.111 10.37 140.951 10.39 140.791 10.39C140.631 10.43 140.481 10.45 140.341 10.45C140.201 10.45 140.021 10.43 139.801 10.39H138.841L133.171 10.3C132.771 10.3 132.431 10.26 132.151 10.18C131.871 10.1 131.651 10 131.491 9.88C131.331 9.72 131.201 9.54 131.101 9.34C131.021 9.14 130.961 8.9 130.921 8.62C130.921 8.28 131.081 7.95 131.401 7.63C131.561 7.47 131.721 7.37 131.881 7.33C132.061 7.27 132.261 7.24 132.481 7.24H132.931H133.831H134.641C134.861 7.24 134.971 7.21 134.971 7.15C134.971 7.07 134.981 7.01 135.001 6.97C135.041 6.91 135.061 6.86 135.061 6.82V6.49C135.061 6.29 135.091 6.11 135.151 5.95C135.211 5.79 135.261 5.65 135.301 5.53C135.381 5.43 135.481 5.33 135.601 5.23C135.721 5.11 135.861 5 136.021 4.9C136.161 4.84 136.321 4.8 136.501 4.78C136.701 4.74 136.891 4.74 137.071 4.78C137.271 4.8 137.441 4.86 137.581 4.96C137.741 5.04 137.861 5.16 137.941 5.32C138.061 5.48 138.121 5.63 138.121 5.77C138.161 5.81 138.181 5.87 138.181 5.95C138.201 6.03 138.211 6.11 138.211 6.19C138.271 6.33 138.271 6.49 138.211 6.67C138.211 6.75 138.211 6.84 138.211 6.94C138.211 7.02 138.231 7.12 138.271 7.24H139.231H139.801H140.401H140.791ZM137.701 11.53C138.121 11.57 138.501 11.66 138.841 11.8C139.201 11.92 139.551 12.1 139.891 12.34C140.171 12.58 140.431 12.85 140.671 13.15C140.931 13.45 141.171 13.8 141.391 14.2C141.671 14.88 141.891 15.74 142.051 16.78C142.151 17.28 142.211 17.77 142.231 18.25C142.271 18.71 142.291 19.19 142.291 19.69C142.291 20.19 142.271 20.68 142.231 21.16C142.191 21.64 142.111 22.1 141.991 22.54C141.911 23.02 141.811 23.47 141.691 23.89C141.591 24.29 141.461 24.67 141.301 25.03C141.081 25.43 140.841 25.78 140.581 26.08C140.341 26.36 140.031 26.61 139.651 26.83C138.951 27.23 138.201 27.47 137.401 27.55C136.601 27.61 135.791 27.48 134.971 27.16C134.211 26.92 133.591 26.45 133.111 25.75C132.711 25.19 132.391 24.6 132.151 23.98C131.911 23.36 131.751 22.69 131.671 21.97C131.631 21.61 131.591 21.25 131.551 20.89C131.511 20.53 131.491 20.18 131.491 19.84C131.491 19.5 131.491 19.18 131.491 18.88C131.511 18.58 131.541 18.26 131.581 17.92C131.581 17.6 131.611 17.28 131.671 16.96C131.731 16.64 131.811 16.31 131.911 15.97C132.271 14.55 132.941 13.44 133.921 12.64C134.901 11.82 136.161 11.45 137.701 11.53ZM137.491 24.22C137.811 24.16 138.101 24 138.361 23.74C138.481 23.58 138.591 23.42 138.691 23.26C138.811 23.08 138.911 22.89 138.991 22.69C139.091 22.47 139.161 22.25 139.201 22.03C139.241 21.81 139.281 21.6 139.321 21.4C139.361 21.16 139.381 20.94 139.381 20.74C139.401 20.52 139.411 20.31 139.411 20.11V18.94C139.371 18.72 139.341 18.51 139.321 18.31C139.301 18.11 139.271 17.9 139.231 17.68C139.191 17.48 139.151 17.28 139.111 17.08C139.071 16.88 139.001 16.7 138.901 16.54C138.821 16.38 138.741 16.22 138.661 16.06C138.581 15.9 138.481 15.76 138.361 15.64C138.241 15.56 138.111 15.5 137.971 15.46C137.851 15.42 137.711 15.38 137.551 15.34C137.391 15.3 137.231 15.3 137.071 15.34C136.911 15.36 136.751 15.39 136.591 15.43C136.431 15.47 136.281 15.51 136.141 15.55C136.001 15.59 135.851 15.67 135.691 15.79C135.491 15.95 135.311 16.2 135.151 16.54C134.871 17.38 134.731 18.18 134.731 18.94C134.731 19.4 134.731 19.84 134.731 20.26C134.751 20.68 134.801 21.12 134.881 21.58C134.921 21.78 134.981 22 135.061 22.24C135.141 22.46 135.221 22.69 135.301 22.93C135.381 23.13 135.481 23.33 135.601 23.53C135.721 23.71 135.861 23.86 136.021 23.98C136.061 24.02 136.101 24.05 136.141 24.07C136.181 24.09 136.251 24.12 136.351 24.16C136.391 24.16 136.441 24.16 136.501 24.16C136.581 24.16 136.661 24.18 136.741 24.22H137.161H137.491ZM152.671 25.6C152.711 25.88 152.721 26.17 152.701 26.47C152.681 26.75 152.651 27.03 152.611 27.31C152.551 27.75 152.391 28.1 152.131 28.36C151.871 28.64 151.581 28.8 151.261 28.84C150.941 28.9 150.621 28.83 150.301 28.63C150.001 28.43 149.771 28.09 149.611 27.61C149.511 27.27 149.461 26.93 149.461 26.59C149.421 26.43 149.391 26.27 149.371 26.11C149.371 25.93 149.371 25.76 149.371 25.6V18.64H147.421V25.75C147.461 26.01 147.471 26.26 147.451 26.5C147.431 26.74 147.421 26.99 147.421 27.25C147.381 27.49 147.311 27.73 147.211 27.97C147.131 28.19 147.001 28.37 146.821 28.51C146.661 28.67 146.461 28.78 146.221 28.84C146.001 28.92 145.731 28.92 145.411 28.84C145.051 28.7 144.761 28.47 144.541 28.15C144.341 27.85 144.221 27.52 144.181 27.16C144.141 26.9 144.121 26.65 144.121 26.41C144.121 26.17 144.121 25.93 144.121 25.69V8.38V8.23V7.96V7.06C144.121 6.76 144.171 6.44 144.271 6.1C144.451 5.76 144.621 5.5 144.781 5.32C144.941 5.06 145.171 4.89 145.471 4.81C145.731 4.77 145.951 4.78 146.131 4.84C146.331 4.88 146.491 4.98 146.611 5.14C146.731 5.28 146.831 5.43 146.911 5.59C146.991 5.73 147.081 5.9 147.181 6.1C147.221 6.3 147.251 6.51 147.271 6.73C147.311 6.93 147.331 7.15 147.331 7.39C147.371 7.65 147.391 7.9 147.391 8.14C147.411 8.38 147.421 8.63 147.421 8.89V10.3V15.01H149.371V8.23V7.24C149.371 7.08 149.371 6.91 149.371 6.73C149.391 6.53 149.421 6.35 149.461 6.19C149.521 5.83 149.681 5.54 149.941 5.32C150.121 5.08 150.411 4.91 150.811 4.81C151.051 4.81 151.251 4.84 151.411 4.9C151.591 4.96 151.741 5.07 151.861 5.23C151.981 5.33 152.091 5.46 152.191 5.62C152.311 5.78 152.391 5.97 152.431 6.19C152.471 6.39 152.511 6.6 152.551 6.82C152.591 7.02 152.631 7.24 152.671 7.48C152.671 7.7 152.681 7.93 152.701 8.17C152.741 8.39 152.761 8.63 152.761 8.89C152.721 9.09 152.691 9.28 152.671 9.46C152.671 9.64 152.671 9.81 152.671 9.97V25.6Z" fill="#8FC158"/>
</svg>
